#Comment line ignore any data following # character 
#Hierarchical Translation and Rotation (.htr) file 
[Header]	
#Header keywords are followed by a single value 
FileType HTR		#Single word string
DataType HTRS		#Translation followed by rotation and scale data
FileVersion 1		#integer
NumSegments 84		#integer
NumFrames 2		#integer
DataFrameRate 30		#integer, data frame rate in this file
EulerRotationOrder ZYX
CalibrationUnits mm
RotationUnits Degrees
GlobalAxisofGravity Y
BoneLengthAxis Y
ScaleFactor 1.00
[SegmentNames&Hierarchy]
#CHILD	PARENT
MASTER GLOBAL
root MASTER
chest root
L_mid_tent01 root
R_mid_tent01 root
spine01 root
Bip01_Neck chest
L_humerus chest
R_humerus chest
weapon_bone chest
Bip01_Head Bip01_Neck
eye_left_bone Bip01_Head
eye_right_bone Bip01_Head
L_forearm L_humerus
L_front_hand L_forearm
L_weapon_bone L_forearm
L_front_hand01_01 L_front_hand
L_front_hand02_01 L_front_hand
L_front_hand03_01 L_front_hand
L_front_hand01_02 L_front_hand01_01
L_front_hand02_02 L_front_hand02_01
L_front_hand03_02 L_front_hand03_01
R_forearm R_humerus
R_front_hand R_forearm
R_weapon_bone R_forearm
R_front_hand01_01 R_front_hand
R_front_hand02_01 R_front_hand
R_front_hand03_01 R_front_hand
R_front_hand01_02 R_front_hand01_01
R_front_hand02_02 R_front_hand02_01
R_front_hand03_02 R_front_hand03_01
null_rope01_connect L_mid_tent01
Rope1_Seg01 null_rope01_connect
Rope1_Seg02 Rope1_Seg01
Rope1_Seg03 Rope1_Seg02
Rope1_Seg04 Rope1_Seg03
Rope1_Seg05 Rope1_Seg04
Rope1_Seg06 Rope1_Seg05
Rope1_Seg07 Rope1_Seg06
Rope1_Seg09 Rope1_Seg07
L_mid_hand01 Rope1_Seg09
L_mid_hand02 Rope1_Seg09
L_mid_hand03 Rope1_Seg09
null_rope02_connect R_mid_tent01
Rope2_Seg01 null_rope02_connect
Rope2_Seg02 Rope2_Seg01
Rope2_Seg03 Rope2_Seg02
Rope2_Seg04 Rope2_Seg03
Rope2_Seg05 Rope2_Seg04
Rope2_Seg06 Rope2_Seg05
Rope2_Seg07 Rope2_Seg06
Rope2_Seg09 Rope2_Seg07
R_mid_hand01 Rope2_Seg09
R_mid_hand02 Rope2_Seg09
R_mid_hand03 Rope2_Seg09
spine02 spine01
spine03 spine02
pelvis spine03
null_rope03_connect pelvis
null_rope04_connect pelvis
Rope3_Seg01 null_rope03_connect
Rope3_Seg02 Rope3_Seg01
Rope3_Seg03 Rope3_Seg02
Rope3_Seg04 Rope3_Seg03
Rope3_Seg05 Rope3_Seg04
Rope3_Seg06 Rope3_Seg05
Rope3_Seg07 Rope3_Seg06
Rope3_Seg08 Rope3_Seg07
Rope3_Seg09 Rope3_Seg08
R_rear_hand01 Rope3_Seg09
R_rear_hand02 Rope3_Seg09
R_rear_hand03 Rope3_Seg09
Rope4_Seg01 null_rope04_connect
Rope4_Seg02 Rope4_Seg01
Rope4_Seg03 Rope4_Seg02
Rope4_Seg04 Rope4_Seg03
Rope4_Seg05 Rope4_Seg04
Rope4_Seg06 Rope4_Seg05
Rope4_Seg07 Rope4_Seg06
Rope4_Seg08 Rope4_Seg07
Rope4_Seg09 Rope4_Seg08
L_rear_hand01 Rope4_Seg09
L_rear_hand02 Rope4_Seg09
L_rear_hand03 Rope4_Seg09
[BasePosition]
#SegmentName Tx, Ty, Tz, Rx, Ry, Rz, BoneLength
MASTER 0.000000 0.000000 0.000000 -90.000000 0.000000 0.000000 10.000000 
root 0.000000 0.000000 0.000000 0.000000 0.000000 0.000000 10.000000 
chest 0.000000 0.000000 0.000000 0.000000 0.000000 0.000000 10.000000 
L_mid_tent01 0.000000 0.000000 0.000000 0.000000 0.000000 0.000000 10.000000 
R_mid_tent01 0.000000 0.000000 0.000000 0.000000 0.000000 0.000000 10.000000 
spine01 0.000000 0.000000 0.000000 0.000000 0.000000 0.000000 10.000000 
Bip01_Neck 0.000000 0.000000 0.000000 0.000000 0.000000 0.000000 10.000000 
L_humerus 0.000000 0.000000 0.000000 0.000000 0.000000 0.000000 10.000000 
R_humerus 0.000000 0.000000 0.000000 0.000000 0.000000 0.000000 10.000000 
weapon_bone 0.000000 0.000000 0.000000 0.000000 0.000000 0.000000 10.000000 
Bip01_Head 0.000000 0.000000 0.000000 0.000000 0.000000 0.000000 10.000000 
eye_left_bone 0.000000 0.000000 0.000000 0.000000 0.000000 0.000000 10.000000 
eye_right_bone 0.000000 0.000000 0.000000 0.000000 0.000000 0.000000 10.000000 
L_forearm 0.000000 0.000000 0.000000 0.000000 0.000000 0.000000 10.000000 
L_front_hand 0.000000 0.000000 0.000000 0.000000 0.000000 0.000000 10.000000 
L_weapon_bone 0.000000 0.000000 0.000000 0.000000 0.000000 0.000000 10.000000 
L_front_hand01_01 0.000000 0.000000 0.000000 0.000000 0.000000 0.000000 10.000000 
L_front_hand02_01 0.000000 0.000000 0.000000 0.000000 0.000000 0.000000 10.000000 
L_front_hand03_01 0.000000 0.000000 0.000000 0.000000 0.000000 0.000000 10.000000 
L_front_hand01_02 0.000000 0.000000 0.000000 0.000000 0.000000 0.000000 10.000000 
L_front_hand02_02 0.000000 0.000000 0.000000 0.000000 0.000000 0.000000 10.000000 
L_front_hand03_02 0.000000 0.000000 0.000000 0.000000 0.000000 0.000000 10.000000 
R_forearm 0.000000 0.000000 0.000000 0.000000 0.000000 0.000000 10.000000 
R_front_hand 0.000000 0.000000 0.000000 0.000000 0.000000 0.000000 10.000000 
R_weapon_bone 0.000000 0.000000 0.000000 0.000000 0.000000 0.000000 10.000000 
R_front_hand01_01 0.000000 0.000000 0.000000 0.000000 0.000000 0.000000 10.000000 
R_front_hand02_01 0.000000 0.000000 0.000000 0.000000 0.000000 0.000000 10.000000 
R_front_hand03_01 0.000000 0.000000 0.000000 0.000000 0.000000 0.000000 10.000000 
R_front_hand01_02 0.000000 0.000000 0.000000 0.000000 0.000000 0.000000 10.000000 
R_front_hand02_02 0.000000 0.000000 0.000000 0.000000 0.000000 0.000000 10.000000 
R_front_hand03_02 0.000000 0.000000 0.000000 0.000000 0.000000 0.000000 10.000000 
null_rope01_connect 0.000000 0.000000 0.000000 0.000000 0.000000 0.000000 10.000000 
Rope1_Seg01 0.000000 0.000000 0.000000 0.000000 0.000000 0.000000 10.000000 
Rope1_Seg02 0.000000 0.000000 0.000000 0.000000 0.000000 0.000000 10.000000 
Rope1_Seg03 0.000000 0.000000 0.000000 0.000000 0.000000 0.000000 10.000000 
Rope1_Seg04 0.000000 0.000000 0.000000 0.000000 0.000000 0.000000 10.000000 
Rope1_Seg05 0.000000 0.000000 0.000000 0.000000 0.000000 0.000000 10.000000 
Rope1_Seg06 0.000000 0.000000 0.000000 0.000000 0.000000 0.000000 10.000000 
Rope1_Seg07 0.000000 0.000000 0.000000 0.000000 0.000000 0.000000 10.000000 
Rope1_Seg09 0.000000 0.000000 0.000000 0.000000 0.000000 0.000000 10.000000 
L_mid_hand01 0.000000 0.000000 0.000000 0.000000 0.000000 0.000000 10.000000 
L_mid_hand02 0.000000 0.000000 0.000000 0.000000 0.000000 0.000000 10.000000 
L_mid_hand03 0.000000 0.000000 0.000000 0.000000 0.000000 0.000000 10.000000 
null_rope02_connect 0.000000 0.000000 0.000000 0.000000 0.000000 0.000000 10.000000 
Rope2_Seg01 0.000000 0.000000 0.000000 0.000000 0.000000 0.000000 10.000000 
Rope2_Seg02 0.000000 0.000000 0.000000 0.000000 0.000000 0.000000 10.000000 
Rope2_Seg03 0.000000 0.000000 0.000000 0.000000 0.000000 0.000000 10.000000 
Rope2_Seg04 0.000000 0.000000 0.000000 0.000000 0.000000 0.000000 10.000000 
Rope2_Seg05 0.000000 0.000000 0.000000 0.000000 0.000000 0.000000 10.000000 
Rope2_Seg06 0.000000 0.000000 0.000000 0.000000 0.000000 0.000000 10.000000 
Rope2_Seg07 0.000000 0.000000 0.000000 0.000000 0.000000 0.000000 10.000000 
Rope2_Seg09 0.000000 0.000000 0.000000 0.000000 0.000000 0.000000 10.000000 
R_mid_hand01 0.000000 0.000000 0.000000 0.000000 0.000000 0.000000 10.000000 
R_mid_hand02 0.000000 0.000000 0.000000 0.000000 0.000000 0.000000 10.000000 
R_mid_hand03 0.000000 0.000000 0.000000 0.000000 0.000000 0.000000 10.000000 
spine02 0.000000 0.000000 0.000000 0.000000 0.000000 0.000000 10.000000 
spine03 0.000000 0.000000 0.000000 0.000000 0.000000 0.000000 10.000000 
pelvis 0.000000 0.000000 0.000000 0.000000 0.000000 0.000000 10.000000 
null_rope03_connect 0.000000 0.000000 0.000000 0.000000 0.000000 0.000000 10.000000 
null_rope04_connect 0.000000 0.000000 0.000000 0.000000 0.000000 0.000000 10.000000 
Rope3_Seg01 0.000000 0.000000 0.000000 0.000000 0.000000 0.000000 10.000000 
Rope3_Seg02 0.000000 0.000000 0.000000 0.000000 0.000000 0.000000 10.000000 
Rope3_Seg03 0.000000 0.000000 0.000000 0.000000 0.000000 0.000000 10.000000 
Rope3_Seg04 0.000000 0.000000 0.000000 0.000000 0.000000 0.000000 10.000000 
Rope3_Seg05 0.000000 0.000000 0.000000 0.000000 0.000000 0.000000 10.000000 
Rope3_Seg06 0.000000 0.000000 0.000000 0.000000 0.000000 0.000000 10.000000 
Rope3_Seg07 0.000000 0.000000 0.000000 0.000000 0.000000 0.000000 10.000000 
Rope3_Seg08 0.000000 0.000000 0.000000 0.000000 0.000000 0.000000 10.000000 
Rope3_Seg09 0.000000 0.000000 0.000000 0.000000 0.000000 0.000000 10.000000 
R_rear_hand01 0.000000 0.000000 0.000000 0.000000 0.000000 0.000000 10.000000 
R_rear_hand02 0.000000 0.000000 0.000000 0.000000 0.000000 0.000000 10.000000 
R_rear_hand03 0.000000 0.000000 0.000000 0.000000 0.000000 0.000000 10.000000 
Rope4_Seg01 0.000000 0.000000 0.000000 0.000000 0.000000 0.000000 10.000000 
Rope4_Seg02 0.000000 0.000000 0.000000 0.000000 0.000000 0.000000 10.000000 
Rope4_Seg03 0.000000 0.000000 0.000000 0.000000 0.000000 0.000000 10.000000 
Rope4_Seg04 0.000000 0.000000 0.000000 0.000000 0.000000 0.000000 10.000000 
Rope4_Seg05 0.000000 0.000000 0.000000 0.000000 0.000000 0.000000 10.000000 
Rope4_Seg06 0.000000 0.000000 0.000000 0.000000 0.000000 0.000000 10.000000 
Rope4_Seg07 0.000000 0.000000 0.000000 0.000000 0.000000 0.000000 10.000000 
Rope4_Seg08 0.000000 0.000000 0.000000 0.000000 0.000000 0.000000 10.000000 
Rope4_Seg09 0.000000 0.000000 0.000000 0.000000 0.000000 0.000000 10.000000 
L_rear_hand01 0.000000 0.000000 0.000000 0.000000 0.000000 0.000000 10.000000 
L_rear_hand02 0.000000 0.000000 0.000000 0.000000 0.000000 0.000000 10.000000 
L_rear_hand03 0.000000 0.000000 0.000000 0.000000 0.000000 0.000000 10.000000 
#Beginning of Data. Separated by tabs
#Fr	Tx	Ty	Tz	Rx	Ry	Rz	SF
[MASTER]
68 0.000000 0.000000 0.000000 0.000000 -0.002347 -90.000000 0.000000
69 0.000000 0.000000 0.000000 0.000000 -0.002347 -90.000000 0.000000
[root]
68 -14.348907 3.000873 472.594574 -88.582230 -10.448836 179.361130 472.821869
69 -14.348907 3.566925 472.594574 -88.582230 -10.448836 179.361130 472.825806
[chest]
68 -84.512650 -34.090519 0.000000 0.312320 4.663250 177.074371 91.129311
69 -84.512650 -34.090519 0.000000 0.562782 4.786214 176.600845 91.129311
[L_mid_tent01]
68 27.299511 22.177458 -249.918259 -63.657536 18.686338 33.262241 252.381134
69 27.299511 22.177458 -249.918259 -63.657536 18.686338 33.262241 252.381134
[R_mid_tent01]
68 23.228794 24.509907 226.238495 -131.259216 -15.836094 39.582561 228.744751
69 23.228794 24.509907 226.238495 -131.259216 -15.836094 39.582561 228.744751
[spine01]
68 -0.361383 -0.195265 0.000000 0.001845 0.001451 13.654368 0.410763
69 -0.361383 -0.195265 0.000000 0.001845 0.001451 13.654368 0.410763
[Bip01_Neck]
68 165.484543 71.581718 0.000119 176.643677 -1.657967 43.431911 180.302734
69 165.484543 71.581718 0.000119 176.643677 -1.657967 43.431911 180.302734
[L_humerus]
68 -13.983130 -135.272980 -120.471481 171.379776 3.783237 -117.877060 181.680161
69 -13.983130 -135.272980 -120.471481 170.914551 4.252799 -118.014236 181.680161
[R_humerus]
68 -13.983309 -135.273102 125.287651 -175.938431 -0.817734 -121.309326 184.909012
69 -13.983309 -135.273102 125.287651 -175.437653 -1.257901 -121.442497 184.909012
[weapon_bone]
68 235.964890 -300.705902 0.000000 0.000000 -89.951546 -128.212341 382.234833
69 235.964890 -300.705902 0.000000 0.000000 -89.951546 -128.212341 382.234833
[Bip01_Head]
68 128.171936 128.412292 8.333418 1.938589 3.724703 -19.795942 181.623810
69 128.171936 128.412292 8.333418 1.938589 3.724703 -19.795942 181.623810
[eye_left_bone]
68 -24.626970 125.451866 -64.772606 0.000000 -90.000000 -99.840431 143.318359
69 -24.626970 125.451866 -64.772606 0.000000 -90.000000 -99.840431 143.318359
[eye_right_bone]
68 -24.626970 125.451866 64.327362 0.000000 -89.965736 80.156380 143.117676
69 -24.626970 125.451866 64.327362 0.000000 -89.965736 80.156380 143.117676
[L_forearm]
68 322.776093 0.000000 -0.000119 0.000678 -0.002247 -123.556992 322.776093
69 322.776093 0.000000 -0.000119 0.000673 -0.002249 -123.312553 322.776093
[L_front_hand]
68 241.149185 -0.042021 -3.300071 113.241447 -1.836935 -27.420624 241.171753
69 241.149185 -0.042021 -3.300071 113.961128 -1.836565 -27.420944 241.171753
[L_weapon_bone]
68 156.183838 0.000000 0.000000 0.000014 0.000007 0.000001 156.183838
69 156.183838 0.000000 0.000000 0.000014 0.000007 0.000001 156.183838
[L_front_hand01_01]
68 86.095154 20.947098 -0.655860 -0.366594 -0.477154 75.385574 88.609184
69 86.095154 20.947098 -0.655860 -0.366594 -0.477154 75.385574 88.609184
[L_front_hand02_01]
68 86.935165 -11.437475 24.513514 154.399796 -59.883835 -61.369587 91.046425
69 86.935165 -11.437475 24.513514 154.399796 -59.883835 -61.369587 91.046425
[L_front_hand03_01]
68 86.637497 -14.123976 -20.424902 -153.913849 58.118122 -62.702866 90.126129
69 86.637497 -14.123976 -20.424902 -153.913849 58.118122 -62.702866 90.126129
[L_front_hand01_02]
68 71.020905 -0.000179 0.000030 0.000334 -0.002323 -106.379684 71.020905
69 71.020905 -0.000179 0.000030 0.000334 -0.002323 -106.379684 71.020905
[L_front_hand02_02]
68 71.020927 -0.000119 0.000060 0.000334 -0.002323 -106.379684 71.020927
69 71.020927 -0.000119 0.000060 0.000334 -0.002323 -106.379684 71.020927
[L_front_hand03_02]
68 71.020905 -0.000060 0.000060 0.000334 -0.002323 -106.379684 71.020905
69 71.020905 -0.000060 0.000060 0.000334 -0.002323 -106.379684 71.020905
[R_forearm]
68 322.776428 -0.000060 0.000030 0.169125 0.130803 -128.575882 322.776428
69 322.776428 -0.000060 0.000030 0.168675 0.131381 -128.968353 322.776428
[R_front_hand]
68 238.847015 -0.006795 2.210259 -147.873978 -10.646550 -26.312094 238.857239
69 238.847015 -0.006795 2.210259 -148.590637 -10.646023 -26.314156 238.857239
[R_weapon_bone]
68 155.664093 0.002503 -0.000030 0.003487 0.001180 -90.988930 155.664078
69 155.664093 0.002503 -0.000030 0.003487 0.001180 -90.988930 155.664078
[R_front_hand01_01]
68 87.624611 14.231146 22.918642 -154.633499 -59.950619 61.746044 91.683487
69 87.624611 14.231146 22.918642 -154.633499 -59.950619 61.746044 91.683487
[R_front_hand02_01]
68 89.356956 14.367283 -19.491137 154.602661 58.302849 63.744389 92.579636
69 89.356956 14.367283 -19.491137 154.602661 58.302849 63.744389 92.579636
[R_front_hand03_01]
68 87.286232 -22.307278 -0.143439 0.162155 -0.423168 -75.767921 90.091743
69 87.286232 -22.307278 -0.143439 0.162155 -0.423168 -75.767921 90.091743
[R_front_hand01_02]
68 71.020905 0.000060 0.000119 0.002323 -0.000334 106.381714 71.020905
69 71.020905 0.000060 0.000119 0.002323 -0.000334 106.381714 71.020905
[R_front_hand02_02]
68 71.020844 -0.000030 -0.000119 0.002323 -0.000334 106.381714 71.020836
69 71.020844 -0.000030 -0.000119 0.002323 -0.000334 106.381714 71.020836
[R_front_hand03_02]
68 71.020905 0.000000 0.000030 0.002323 -0.000334 106.381714 71.020905
69 71.020905 0.000000 0.000030 0.002323 -0.000334 106.381714 71.020905
[null_rope01_connect]
68 328.732483 0.000000 -0.000238 -166.231216 26.298847 69.278114 328.732483
69 328.732483 0.000000 -0.000238 -166.231216 26.298847 69.278114 328.732483
[Rope1_Seg01]
68 0.000000 0.000000 0.000000 145.318970 -40.054386 -73.070435 0.000000
69 0.000000 0.000000 0.000000 144.779663 -39.829556 -72.675140 0.000000
[Rope1_Seg02]
68 139.999863 -0.000179 0.000000 -7.798635 -5.667246 -4.531775 139.999863
69 139.999863 -0.000179 0.000000 -7.713552 -5.645820 -4.562003 139.999863
[Rope1_Seg03]
68 139.999924 0.000060 -0.000060 -12.528079 -8.721177 -9.316710 139.999924
69 139.999924 0.000060 -0.000060 -12.341581 -8.660422 -9.325454 139.999924
[Rope1_Seg04]
68 139.999924 -0.000060 -0.000119 -16.162312 -12.242723 -21.925749 139.999924
69 139.999924 -0.000060 -0.000119 -15.900293 -12.135120 -21.785191 139.999924
[Rope1_Seg05]
68 139.999832 0.000119 -0.000060 -8.200387 -5.345201 -26.991478 139.999832
69 139.999832 0.000119 -0.000060 -8.120996 -5.423217 -26.810390 139.999832
[Rope1_Seg06]
68 139.999954 0.000119 -0.000060 -1.531273 -1.069674 -25.479540 139.999954
69 139.999954 0.000119 -0.000060 -1.513367 -1.325505 -25.558023 139.999954
[Rope1_Seg07]
68 139.999985 0.000060 0.000000 4.591724 -0.336589 -26.723948 139.999985
69 139.999985 0.000060 0.000000 4.700084 -0.607539 -26.940237 139.999985
[Rope1_Seg09]
68 121.602913 0.000119 -0.000089 -89.793175 -1.359789 0.847147 121.602913
69 121.602913 0.000119 -0.000089 -89.793175 -1.359789 0.847147 121.602913
[L_mid_hand01]
68 103.859421 1.038730 8.195221 109.056198 -40.604698 -13.201401 104.187431
69 103.859421 1.038730 8.195221 109.056198 -40.604698 -13.201401 104.187431
[L_mid_hand02]
68 105.572853 -4.139662 -10.864139 -146.713593 31.476528 -37.902313 106.211075
69 105.572853 -4.139662 -10.864139 -146.713593 31.476528 -37.902313 106.211075
[L_mid_hand03]
68 104.641464 17.579376 -3.913581 -14.267233 12.322316 43.898396 106.179977
69 104.641464 17.579376 -3.913581 -14.267233 12.322316 43.898396 106.179977
[null_rope02_connect]
68 328.732849 0.000179 -0.000119 -164.342651 -37.938038 110.680077 328.732849
69 328.732849 0.000179 -0.000119 -164.342651 -37.938038 110.680077 328.732849
[Rope2_Seg01]
68 -0.000038 -0.000114 0.000104 -68.284042 -41.618813 -106.266083 0.000159
69 -0.000038 -0.000114 0.000104 -69.092613 -41.825966 -105.285362 0.000159
[Rope2_Seg02]
68 139.999741 -0.000060 -0.000119 4.567749 4.095822 6.111087 139.999756
69 139.999741 -0.000060 -0.000119 4.760331 4.212101 6.179689 139.999756
[Rope2_Seg03]
68 140.000107 0.000030 0.000000 7.702440 8.244650 10.591744 140.000107
69 140.000107 0.000030 0.000000 7.999807 8.545879 10.721876 140.000107
[Rope2_Seg04]
68 139.999802 0.000000 -0.000060 12.793118 19.621178 20.154171 139.999802
69 139.999802 0.000000 -0.000060 13.019664 20.351309 20.198328 139.999802
[Rope2_Seg05]
68 139.999985 -0.000060 0.000119 6.495316 24.557140 18.405107 139.999985
69 139.999985 -0.000060 0.000119 6.081259 24.729372 17.737392 139.999985
[Rope2_Seg06]
68 139.999893 -0.000030 -0.000119 -0.625694 15.155371 12.173271 139.999893
69 139.999893 -0.000030 -0.000119 -0.829701 14.716328 11.844796 139.999893
[Rope2_Seg07]
68 139.999893 0.000060 -0.000060 -3.601260 15.548942 15.250421 139.999893
69 139.999893 0.000060 -0.000060 -3.707797 15.217846 15.382177 139.999893
[Rope2_Seg09]
68 121.338966 0.000089 -0.000060 33.793236 -1.359788 -0.847141 121.338966
69 121.338966 0.000089 -0.000060 33.793236 -1.359788 -0.847141 121.338966
[R_mid_hand01]
68 104.680779 11.144459 -10.335981 -37.204079 31.906813 37.576260 105.778534
69 104.680779 11.144459 -10.335981 -37.204079 31.906813 37.576260 105.778534
[R_mid_hand02]
68 104.070427 2.443552 8.231699 70.367462 -42.427391 14.067809 104.424065
69 104.070427 2.443552 8.231699 70.367462 -42.427391 14.067809 104.424065
[R_mid_hand03]
68 106.028137 -11.221827 -5.996406 -169.893616 12.226661 -47.211018 106.788818
69 106.028137 -11.221827 -5.996406 -169.893616 12.226658 -47.211018 106.788818
[spine02]
68 129.756927 0.001550 0.000119 -1.023899 -3.926965 6.770993 129.756927
69 129.756927 0.001550 0.000119 -1.023899 -3.926965 6.770993 129.756927
[spine03]
68 78.613846 0.087372 -4.898873 1.040681 4.146420 4.212376 78.766380
69 78.613846 0.087372 -4.898873 1.040681 4.146420 4.212376 78.766380
[pelvis]
68 169.435242 0.051022 0.000000 0.019518 -0.190233 -10.721436 169.435257
69 169.435242 0.051022 0.000000 0.019518 -0.190233 -10.721436 169.435257
[null_rope03_connect]
68 -1.257226 -2.466202 137.391083 21.146282 88.832657 -72.228729 137.418976
69 -1.257226 -2.466202 137.391083 21.146282 88.832657 -72.228729 137.418976
[null_rope04_connect]
68 -1.259640 -2.480268 -137.844437 21.146282 88.832657 -72.228729 137.872513
69 -1.259640 -2.480268 -137.844437 21.146282 88.832657 -72.228729 137.872513
[Rope3_Seg01]
68 0.000000 0.000000 0.000000 -138.120743 -44.487984 106.756142 0.000000
69 0.000000 0.000000 0.000000 -138.120743 -44.487984 106.756142 0.000000
[Rope3_Seg02]
68 139.999924 -0.000119 0.000060 3.745520 -14.663014 5.634119 139.999924
69 139.999924 -0.000119 0.000060 3.745520 -14.663014 5.634119 139.999924
[Rope3_Seg03]
68 139.999924 -0.000119 0.000119 5.757116 -20.458414 10.094739 139.999924
69 139.999924 -0.000119 0.000119 5.755191 -20.454910 10.099052 139.999924
[Rope3_Seg04]
68 139.999924 0.000119 0.000000 4.904487 -15.813652 10.715883 139.999924
69 139.999924 0.000119 0.000000 4.896028 -15.801599 10.736802 139.999924
[Rope3_Seg05]
68 139.999924 -0.000238 0.000060 4.224419 -14.602953 11.771519 139.999924
69 139.999924 -0.000238 0.000060 4.224222 -14.632380 11.749858 139.999924
[Rope3_Seg06]
68 139.999893 -0.000119 -0.000060 2.295366 -23.135622 23.473068 139.999893
69 139.999893 -0.000119 -0.000060 2.345545 -23.174023 23.342123 139.999893
[Rope3_Seg07]
68 139.999771 0.000060 -0.000119 0.159153 -13.675592 17.100683 139.999771
69 139.999771 0.000060 -0.000119 0.222932 -13.680994 17.015585 139.999771
[Rope3_Seg08]
68 139.999985 -0.000060 0.000000 0.114569 -5.867851 7.749673 139.999985
69 139.999985 -0.000060 0.000000 0.145750 -5.869871 7.730431 139.999985
[Rope3_Seg09]
68 90.185997 -0.000179 -0.000060 89.793228 -1.359877 -0.847183 90.185997
69 90.185997 -0.000179 -0.000060 89.793228 -1.359877 -0.847183 90.185997
[R_rear_hand01]
68 103.366196 -6.073594 -10.757982 -164.755127 19.627697 -40.352161 104.101845
69 103.366196 -6.073594 -10.757982 -164.755127 19.627697 -40.352161 104.101845
[R_rear_hand02]
68 100.509819 12.039542 -7.992327 -30.792652 24.782448 38.141541 101.543350
69 100.509819 12.039542 -7.992327 -30.792652 24.782448 38.141541 101.543350
[R_rear_hand03]
68 101.539970 5.215704 5.435467 82.448349 -41.048256 8.840378 101.819031
69 101.539970 5.215704 5.435467 82.448349 -41.048256 8.840378 101.819031
[Rope4_Seg01]
68 0.000010 0.000038 -0.000114 61.165009 -42.715210 65.384666 0.000121
69 0.000010 0.000038 -0.000114 61.057076 -42.650166 65.512444 0.000121
[Rope4_Seg02]
68 139.999985 0.000060 0.000119 -4.962852 4.744946 -11.563676 139.999985
69 139.999985 0.000060 0.000119 -4.934585 4.657537 -11.578160 139.999985
[Rope4_Seg03]
68 139.999924 0.000000 -0.000238 -8.126374 8.865030 -17.750124 139.999924
69 139.999924 0.000000 -0.000238 -8.075393 8.680383 -17.680096 139.999924
[Rope4_Seg04]
68 139.999985 0.000000 0.000119 -7.639472 12.985020 -17.640419 139.999985
69 139.999985 0.000000 0.000119 -7.618265 12.712146 -17.498941 139.999985
[Rope4_Seg05]
68 139.999802 -0.000060 -0.000119 -4.043794 10.229550 -13.621181 139.999802
69 139.999802 -0.000060 -0.000119 -4.142164 10.087766 -13.628781 139.999802
[Rope4_Seg06]
68 139.999924 0.000000 0.000060 -6.737637 16.781824 -27.195730 139.999924
69 139.999924 0.000000 0.000060 -7.055064 16.722889 -27.405933 139.999924
[Rope4_Seg07]
68 139.999802 0.000000 0.000000 -3.492393 18.030575 -26.416828 139.999802
69 139.999802 0.000000 0.000000 -3.789230 18.091536 -26.506359 139.999802
[Rope4_Seg08]
68 139.999924 0.000000 0.000119 -0.899770 7.424653 -10.185575 139.999924
69 139.999924 0.000000 0.000119 -0.986057 7.471857 -10.147133 139.999924
[Rope4_Seg09]
68 90.185791 0.000060 0.000060 -135.617828 2.228885 0.850567 90.185791
69 90.185791 0.000060 0.000060 -135.617828 2.228885 0.850567 90.185791
[L_rear_hand01]
68 101.696655 -8.392275 -7.654577 -31.684452 -23.583008 144.025742 102.329041
69 101.696655 -8.392275 -7.654577 -31.684452 -23.583008 144.025742 102.329041
[L_rear_hand02]
68 102.726799 -1.568258 5.773216 82.701553 38.753956 171.553619 102.900848
69 102.726799 -1.568258 5.773216 82.701553 38.753956 171.553619 102.900848
[L_rear_hand03]
68 104.552910 9.721220 -10.420293 -163.975388 -19.004416 -142.009338 105.519653
69 104.552910 9.721220 -10.420293 -163.975388 -19.004423 -142.009338 105.519653
